<svg xmlns="http://www.w3.org/2000/svg" viewBox="0 0 1600 900"><defs><linearGradient id="b" x2="1" y2="1"><stop stop-color="#a1b8d8"/><stop offset="1" stop-color="#d8e3ef"/></linearGradient><linearGradient id="s" x2="0" y2="1"><stop stop-color="#242b38"/><stop offset="1" stop-color="#121722"/></linearGradient></defs><rect width="1600" height="900" fill="url(#b)"/><circle cx="1300" cy="110" r="410" fill="#e3ebf5" opacity=".3"/><rect x="225" y="125" width="1150" height="665" rx="20" fill="#64738a" opacity=".15"/><rect x="225" y="105" width="1150" height="665" rx="20" fill="url(#s)"/><rect x="225" y="105" width="1150" height="40" rx="20" fill="#313949"/><circle cx="250" cy="125" r="4" fill="#9eacbd"/><circle cx="266" cy="125" r="4" fill="#9eacbd"/><circle cx="282" cy="125" r="4" fill="#9eacbd"/><path d="M440 145V770" stroke="#394354"/><g font-family="Arial,sans-serif"><text x="268" y="205" fill="#f6f8fc" font-size="27">◉ orbit</text><text x="267" y="276" fill="#b0bccf" font-size="15">Workspace</text><rect x="250" y="300" width="170" height="42" rx="8" fill="#354862"/><text x="267" y="327" fill="#fff" font-size="14">Overview</text><text x="267" y="375" fill="#b0bccf" font-size="14">My projects</text><text x="267" y="422" fill="#b0bccf" font-size="14">Calendar</text><text x="490" y="216" fill="#f6f8fc" font-size="34">A little space to focus.</text><text x="490" y="250" fill="#a9b8ce" font-size="15">Your ideas. Your work. All in one orbit.</text><rect x="490" y="295" width="245" height="115" rx="12" fill="#313f55"/><rect x="760" y="295" width="245" height="115" rx="12" fill="#313f55"/><rect x="1030" y="295" width="285" height="115" rx="12" fill="#313f55"/><text x="510" y="327" fill="#bac9df" font-size="13">IN PROGRESS</text><text x="510" y="381" fill="#fff" font-size="34">Design system</text><text x="780" y="327" fill="#bac9df" font-size="13">UP NEXT</text><text x="780" y="381" fill="#fff" font-size="28">The big idea</text><text x="1050" y="327" fill="#bac9df" font-size="13">A LITTLE REMINDER</text><text x="1050" y="381" fill="#fff" font-size="25">Make room to think.</text><text x="490" y="466" fill="#f6f8fc" font-size="20">Your workspace</text><rect x="490" y="492" width="825" height="205" rx="12" fill="#202b3c"/><g fill="#bac9df" font-size="15"><text x="515" y="535">Visual direction</text><text x="515" y="590">Interface explorations</text><text x="515" y="645">Build and refine</text></g><g stroke="#39475d"><path d="M510 553H1295"/><path d="M510 608H1295"/></g><g fill="#6b91ce"><rect x="1160" y="518" width="110" height="22" rx="11"/><rect x="1160" y="573" width="110" height="22" rx="11"/><rect x="1160" y="628" width="110" height="22" rx="11"/></g><text x="800" y="846" text-anchor="middle" fill="#394f6b" font-size="13" letter-spacing="4">SAMPLE CONCEPT / DIGITAL WORKSPACE</text></g></svg>
